<?xml version="1.0" standalone="no"?>
<!DOCTYPE svg PUBLIC "-//W3C//DTD SVG 20010904//EN"
 "http://www.w3.org/TR/2001/REC-SVG-20010904/DTD/svg10.dtd">
<svg version="1.0" xmlns="http://www.w3.org/2000/svg"
 width="120.000000pt" height="120.000000pt" viewBox="0 0 120.000000 120.000000"
 preserveAspectRatio="xMidYMid meet">
<metadata>
Created by potrace 1.11, written by Peter Selinger 2001-2013
</metadata>
<g transform="translate(0.000000,120.000000) scale(0.100000,-0.100000)"
fill="#000000" stroke="none">
<path d="M720 1113 c0 -5 -16 -36 -35 -68 l-36 -58 38 -39 c20 -21 41 -38 45
-38 9 0 108 150 108 163 0 9 -50 32 -93 42 -15 4 -27 3 -27 -2z"/>
<path d="M405 1094 c-22 -8 -45 -16 -51 -18 -7 -3 65 -81 159 -175 l171 -171
39 38 39 39 -58 64 c-116 128 -229 239 -244 238 -8 0 -33 -7 -55 -15z"/>
<path d="M936 979 c-32 -55 -139 -183 -219 -263 l-79 -79 40 -40 40 -40 39 30
c61 49 194 192 247 266 l49 68 -24 26 c-13 14 -36 33 -50 43 -25 19 -25 19
-43 -11z"/>
<path d="M175 940 c-21 -22 -37 -41 -34 -43 2 -1 48 -36 103 -76 l98 -73 36
34 c20 18 39 34 41 36 14 8 -172 162 -196 162 -5 0 -26 -18 -48 -40z"/>
<path d="M489 824 c-13 -14 -61 -58 -107 -97 l-83 -70 40 -40 39 -40 79 65
c43 37 91 80 107 96 l28 31 -33 40 c-19 22 -37 41 -40 41 -3 0 -16 -12 -30
-26z"/>
<path d="M1046 714 l-79 -85 34 -35 c18 -19 38 -34 44 -34 6 0 37 27 70 60
l59 59 -20 61 c-10 33 -21 60 -24 60 -3 -1 -40 -39 -84 -86z"/>
<path d="M56 768 c-2 -7 -11 -34 -19 -59 l-15 -46 87 -60 c47 -34 115 -87 151
-120 l65 -60 37 30 c21 17 38 36 38 43 0 37 -335 302 -344 272z"/>
<path d="M507 637 l-39 -32 58 -65 c31 -36 72 -82 91 -103 l34 -38 39 33 c21
18 39 36 39 40 1 8 -168 198 -177 198 -4 0 -24 -15 -45 -33z"/>
<path d="M838 616 l-37 -32 67 -67 68 -67 34 35 34 35 -64 65 -65 64 -37 -33z"/>
<path d="M415 456 l-70 -63 39 -47 c21 -26 42 -46 46 -44 5 2 38 32 75 67 l66
63 -36 44 c-20 24 -39 44 -43 44 -4 0 -38 -29 -77 -64z"/>
<path d="M717 406 l-106 -94 38 -43 c37 -42 39 -43 62 -26 13 9 62 52 109 96
l85 80 -41 41 -40 41 -107 -95z"/>
<path d="M481 316 l-34 -35 31 -38 c17 -21 49 -56 71 -78 l41 -39 37 36 36 37
-67 75 c-37 42 -71 76 -75 76 -4 0 -22 -15 -40 -34z"/>
</g>
</svg>
