<?xml version="1.0" encoding="UTF-8"?>
<!DOCTYPE svg PUBLIC "-//W3C//DTD SVG 1.1//EN" "http://www.w3.org/Graphics/SVG/1.1/DTD/svg11.dtd">
<!-- Creator: CorelDRAW X6 -->
<svg xmlns="http://www.w3.org/2000/svg" xml:space="preserve" width="117.475mm" height="24.6944mm" version="1.1" style="shape-rendering:geometricPrecision; text-rendering:geometricPrecision; image-rendering:optimizeQuality; fill-rule:evenodd; clip-rule:evenodd"
viewBox="0 0 11748 2469"
 xmlns:xlink="http://www.w3.org/1999/xlink">
 <defs>
  <style type="text/css">
   <![CDATA[
    .fil12 {fill:none;fill-rule:nonzero}
    .fil1 {fill:#37B166}
    .fil2 {fill:#3985BC}
    .fil4 {fill:#435466}
    .fil5 {fill:#648DC8}
    .fil0 {fill:#C3483C}
    .fil6 {fill:#D45F39}
    .fil8 {fill:#E78337}
    .fil7 {fill:#E85749}
    .fil3 {fill:#F3A033}
    .fil11 {fill:#465466;fill-rule:nonzero}
    .fil10 {fill:#37B166;fill-rule:nonzero}
    .fil9 {fill:#3985BC;fill-rule:nonzero}
   ]]>
  </style>
 </defs>
 <g id="__x0023_Layer_x0020_1">
  <metadata id="CorelCorpID_0Corel-Layer"/>
  <g id="_153253416">
   <path class="fil0" d="M4728 1318l-197 -195c190,-157 372,-316 537,-475l182 210c-161,152 -336,307 -523,460z"/>
   <g>
    <path class="fil1" d="M4595 1707c-195,-217 -446,-412 -732,-593l89 -303c338,215 635,440 846,709l-203 187z"/>
    <polygon class="fil2" points="4994,1445 4637,1764 4842,2003 5200,1664 "/>
    <polygon class="fil1" points="4880,2044 5227,2426 5415,2239 5077,1848 "/>
    <polygon class="fil1" points="5475,2183 5274,1960 5798,1492 5997,1709 "/>
    <polygon class="fil1" points="6133,1198 6537,753 6645,1067 6325,1384 "/>
    <path class="fil3" d="M4339 309l-216 228c190,125 362,251 514,386l212 -208c-150,-152 -324,-290 -510,-406z"/>
    <polygon class="fil4" points="4939,1249 5145,1073 5580,1569 5384,1756 "/>
    <polygon class="fil5" points="5919,1122 5737,1305 6063,1636 6241,1457 "/>
    <path class="fil6" d="M6348 468l-233 -206c-207,333 -468,631 -772,904l203 206c345,-290 620,-590 802,-904z"/>
    <path class="fil7" d="M5458 961c-256,-296 -537,-578 -838,-846l330 -110c239,238 470,490 694,752l-186 204z"/>
    <path class="fil8" d="M5576 534l-209 -223c83,-103 144,-213 190,-329l296 105c-70,152 -161,303 -277,447z"/>
    <path class="fil9" d="M389 2419l0 -1623 283 0 0 1623 -283 0zm1352 0l0 0 0 -687c0,-101 -19,-174 -57,-221 -38,-47 -102,-71 -188,-71 -40,0 -82,13 -127,34 -47,24 -80,51 -106,86l0 859 -273 0 0 -1187 195 0 51 112c74,-90 184,-133 328,-133 140,0 250,41 330,127 80,84 121,202 121,354l0 728 -273 0zm1219 -1417l0 0c-59,-21 -106,-30 -138,-30 -51,0 -95,21 -131,67 -36,45 -53,101 -53,165 0,9 0,19 0,28l241 0 0 228 -237 0 0 960 -273 0 0 -960 -169 0 0 -228 169 0c6,-144 49,-262 127,-352 80,-88 182,-133 307,-133 66,0 144,15 237,43l-80 213zm99 820l0 0c0,-180 51,-329 154,-442 104,-114 239,-170 408,-170 178,0 313,54 413,163 97,110 148,260 148,449 0,189 -51,339 -150,451 -102,112 -237,168 -410,168 -178,0 -315,-56 -415,-168 -99,-114 -148,-264 -148,-451zm283 0l0 0c0,262 93,393 279,393 85,0 152,-34 201,-103 51,-67 74,-163 74,-290 0,-258 -91,-386 -275,-386 -87,0 -154,34 -203,103 -51,67 -76,163 -76,283z"/>
    <path class="fil10" d="M7510 1889l-836 0c6,94 38,168 97,221 59,52 137,77 237,77 125,0 220,-32 286,-97l106 210c-97,79 -239,118 -429,118 -180,0 -319,-54 -423,-159 -104,-105 -157,-253 -157,-444 0,-187 57,-339 171,-455 114,-116 250,-174 410,-174 169,0 305,52 406,155 104,103 154,234 154,393 0,34 -6,86 -23,155zm-823 -208l0 0 571 0c-19,-174 -112,-262 -281,-262 -157,0 -252,88 -290,262zm1716 597l0 0c-25,43 -68,77 -129,103 -61,26 -127,39 -193,39 -127,0 -224,-32 -296,-97 -72,-62 -110,-155 -110,-271 0,-137 51,-247 152,-324 102,-77 245,-116 434,-116 32,0 70,4 112,15 0,-137 -87,-208 -260,-208 -102,0 -188,17 -258,52l-57 -215c93,-45 205,-69 334,-69 178,0 309,43 391,124 85,82 125,238 125,468l0 253c0,159 32,258 95,298 -23,41 -49,64 -76,75 -27,9 -59,13 -95,13 -40,0 -74,-15 -106,-45 -32,-28 -53,-60 -63,-97zm-28 -440l0 0c-47,-11 -80,-15 -104,-15 -216,0 -324,73 -324,217 0,107 61,161 182,161 165,0 245,-84 245,-251l0 -112zm1054 582l0 0 -99 0 -527 -1209 298 0 279 726 300 -726 288 0 -540 1209zm1737 -530l0 0 -836 0c4,94 36,168 95,221 59,52 140,77 239,77 125,0 218,-32 283,-97l106 210c-95,79 -239,118 -429,118 -178,0 -320,-54 -423,-159 -104,-105 -154,-253 -154,-444 0,-187 57,-339 169,-455 114,-116 252,-174 410,-174 169,0 305,52 408,155 102,103 155,234 155,393 0,34 -8,86 -23,155zm-825 -208l0 0 573 0c-19,-174 -114,-262 -283,-262 -157,0 -252,88 -290,262z"/>
   </g>
  </g>
  <path class="fil11" d="M11249 698l0 255 -54 0 0 -255 -97 0 0 -48 251 0 0 48 -101 0zm418 255l-52 0 -32 -163 -61 167 -19 0 -61 -167 -32 163 -52 0 61 -303 28 0 65 204 64 -204 28 0 62 303z"/>
  <g id="_152534616">
   <polygon class="fil12" points="11748,2417 11642,2417 11642,2293 11748,2293 "/>
  </g>
 </g>
</svg>
